<?xml version="1.0" encoding="UTF-8" standalone="no"?>
<!DOCTYPE svg PUBLIC "-//W3C//DTD SVG 20010904//EN"
              "http://www.w3.org/TR/2001/REC-SVG-20010904/DTD/svg10.dtd">

<svg xmlns="http://www.w3.org/2000/svg"
     width="6.66667in" height="4.44444in"
     viewBox="0 0 600 400">
  <path id="Imported Path"
        fill="none" stroke="black" stroke-width="1"
        d="M 472.00,282.17
           C 472.00,282.17 331.00,281.17 331.00,281.17M 313.00,242.17
           C 313.00,242.17 493.00,232.17 493.00,232.17M 498.00,191.17
           C 498.00,191.17 336.00,202.17 336.00,202.17M 301.00,177.17
           C 301.00,177.17 462.00,168.17 462.00,168.17M 488.00,128.17
           C 488.00,128.17 328.00,132.17 328.00,132.17M 302.00,101.17
           C 302.00,101.17 492.00,96.17 492.00,96.17M 296.00,103.17
           C 296.00,103.17 296.00,103.17 296.00,103.17M 97.95,86.08
           C 97.95,86.08 97.95,301.08 97.95,301.08
             97.95,301.08 259.95,301.08 259.95,301.08
             259.95,301.08 259.95,86.08 259.95,86.08
             259.95,86.08 97.95,86.08 97.95,86.08 Z
           M 59.99,50.08
           C 59.99,50.08 59.99,344.08 59.99,344.08
             59.99,344.08 531.99,344.08 531.99,344.08
             531.99,344.08 531.99,50.08 531.99,50.08
             531.99,50.08 59.99,50.08 59.99,50.08 Z" />
</svg>
